<?xml version="1.0" encoding="utf-8"?>
<!-- Generator: Adobe Illustrator 22.1.0, SVG Export Plug-In . SVG Version: 6.00 Build 0)  -->
<svg version="1.1"
	 id="svg8" inkscape:version="0.92.1 r15371" sodipodi:docname="equality.svg" xmlns:cc="http://creativecommons.org/ns#" xmlns:dc="http://purl.org/dc/elements/1.1/" xmlns:inkscape="http://www.inkscape.org/namespaces/inkscape" xmlns:rdf="http://www.w3.org/1999/02/22-rdf-syntax-ns#" xmlns:sodipodi="http://sodipodi.sourceforge.net/DTD/sodipodi-0.dtd" xmlns:svg="http://www.w3.org/2000/svg"
	 xmlns="http://www.w3.org/2000/svg" xmlns:xlink="http://www.w3.org/1999/xlink" x="0px" y="0px" viewBox="0 0 200 200"
	 style="enable-background:new 0 0 200 200;" xml:space="preserve">
<style type="text/css">
	.st0{fill:#222222;}
	.st1{fill:#F44336;}
	.st2{fill:#FFFFFF;}
</style>
<defs>
	
	
		<inkscape:path-effect  bendpath1="m -199.08406,108.42369 h 7.0057" bendpath2="m -192.07836,108.42369 v 6.75242" bendpath3="m -199.08406,115.17611 h 7.0057" bendpath4="m -199.08406,108.42369 v 6.75242" effect="envelope" id="path-effect4658" is_visible="true" xx="true" yy="true">
		</inkscape:path-effect>
	
		<inkscape:path-effect  bendpath="m -192.00142,114.60623 c 2.12577,-0.53066 4.48261,0.85111 7.0057,0" bendpath-nodetypes="cc" effect="bend_path" id="path-effect4656" is_visible="true" prop_scale="1" scale_y_rel="false" vertical="false">
		</inkscape:path-effect>
	<inkscape:path-effect  effect="bounding_box" id="path-effect4654" is_visible="true" linkedpath="" visualbounds="false">
		</inkscape:path-effect>
</defs>
<sodipodi:namedview  bordercolor="#666666" borderopacity="1.0" fit-margin-bottom="0" fit-margin-left="0" fit-margin-right="0" fit-margin-top="0" id="base" inkscape:current-layer="layer1" inkscape:cx="56.450488" inkscape:cy="105.07799" inkscape:document-units="px" inkscape:object-nodes="false" inkscape:pageopacity="0.0" inkscape:pageshadow="2" inkscape:window-height="1016" inkscape:window-maximized="1" inkscape:window-width="1920" inkscape:window-x="0" inkscape:window-y="27" inkscape:zoom="0.70710678" pagecolor="#ffffff" showgrid="false" showguides="false" units="px">
	</sodipodi:namedview>
<g id="layer1" transform="translate(39.608708,-92.411388)" inkscape:groupmode="layer" inkscape:label="Layer 1">
	<g id="g4561" transform="matrix(2,0,0,2,-39.608708,92.411388)">
		<path id="rect4485" class="st0" d="M7.5,0h85c4.1,0,7.5,3.4,7.5,7.5v85c0,4.1-3.4,7.5-7.5,7.5h-85C3.4,100,0,96.6,0,92.5v-85
			C0,3.4,3.4,0,7.5,0z"/>
		<path id="rect4487" class="st1" d="M10,5h80c2.8,0,5,2.2,5,5v80c0,2.8-2.2,5-5,5H10c-2.8,0-5-2.2-5-5V10C5,7.2,7.2,5,10,5z"/>
		<path id="path4521" inkscape:connector-curvature="0" class="st0" d="M42.5,10.2c-1.6,0-3.3,0.9-4,2.6c-0.3,0.6-0.4,1-0.4,1.9
			c0,0.9,0.1,1.3,0.4,1.9c0.4,0.7,1.1,1.5,1.8,1.9c0.3,0.2,0.7,0.3,1,0.4c0.2,0,0.3,0.1,0.4,0.1c0,0.1,0,0.3,0,0.5
			c0,0.5,0,1.2,0,2.1c0,1.3,0,2,0,2.4c0,0,0,0-0.1,0c-0.2-0.1-0.5-0.1-0.8-0.2c-0.7-0.2-1.6-0.5-2.6-0.8c-3.7-1.2-6-1.6-7.6-1.2
			c-0.6,0.2-1.1,0.4-1.7,0.8c-0.6,0.4-1.3,1.1-2.4,2.2c-0.9,0.9-1.5,1.4-1.9,1.7s-0.8,0.4-1.3,0.4c-0.3,0-0.4,0-0.4,0
			c0,0,0-0.1,0-0.2v-0.9h-1.1h-1.1v0.5c-0.1,0-0.2-0.1-0.3-0.2c-0.4-0.2-0.8-0.5-1-0.7c-0.2-0.2-0.4-0.4-0.6-0.5
			c-0.1-0.1-0.2-0.2-0.4-0.3c0,0-0.1,0-0.1,0s-0.2,0-0.2,0c0,0-0.2,0.1-0.2,0.1c0,0-0.1,0.1-0.1,0.1c0,0,0,0-0.1,0.1
			c-0.1,0.2-0.1,0.3-0.1,0.3c0,0.1,0,0.2,0.1,0.4c0.2,1.5,1.3,2.9,2.6,3.6l0.3,0.2v0.4v0.2h-0.4h-1.3l-0.6,2
			c-0.3,0.9-0.9,2.9-1.4,4.4c-0.5,1.5-1.5,4.5-2.2,6.7c-0.7,2.2-1.7,5.2-2.2,6.7l-0.8,2.4H10H6.9L8,53.4c2.3,2.7,4.9,4.1,9,4.9
			c1.4,0.3,1.8,0.3,4.5,0.3c2.7,0,3.1,0,4.5-0.3c3.9-0.8,6.9-2.3,8.8-4.6l1.2-1.5l-2.8-0.1l-1.5,0l-0.1-0.5C31.4,51.2,31,50,30.7,49
			c-0.3-1-0.9-2.8-1.3-4c-0.4-1.2-0.8-2.4-0.9-2.8c-0.1-0.3-0.6-1.9-1.1-3.5c-0.5-1.6-1.3-4.2-1.8-5.7l-1-3.1l-1.2,0l-0.4,0v0v0l1,0
			c0.4,0,0.8,0,1.1-0.1c0.3,0,0.6-0.1,0.8-0.1c1.1-0.3,2.1-0.8,3.4-1.7c0.9-0.6,1.5-1,1.9-1.1c0.4-0.2,0.7-0.2,1.3-0.1
			c1,0.1,1.6,0.3,3.8,1.5c0.8,0.4,1.7,0.9,2.1,1.1c1,0.5,2.6,1,3.4,1.1l0.1,0l-0.1,5.8l-0.1,6.1l-1.2,2.3l-1.3,2.5l0.1,7.4l0.1,6.8
			h-2.8h-3.8v1.8v1.2l-1.5,2.4c-0.8,1.4-1.9,3.2-2.4,4c-0.5,0.8-1,1.6-1.1,1.8l-0.5,1h15.7c4.1,0,7.8,0,10.5,0c1.3,0,2.4,0,3.2,0
			c0.4,0,0.7,0,0.9,0c0.1,0,0.2,0,0.2,0c0,0,0.1,0,0.1,0c0,0,0,0,0.1,0c0,0,0.1,0,0.1,0c0,0,0.1-0.1,0.1-0.1c0,0,0.1-0.3,0.1-0.3
			c0,0,0-0.1,0-0.1c0,0,0,0,0-0.1c0,0,0,0,0-0.1c0,0,0,0,0-0.1c0,0,0-0.1-0.1-0.1c-0.1-0.1-0.1-0.2-0.2-0.3
			c-0.2-0.2-0.4-0.6-0.7-0.9c-0.5-0.7-1.2-1.6-1.5-2.1c-0.3-0.4-0.7-0.9-0.8-1.1C55,68,54.3,67,53.5,65.9l-1.3-1.8v-1.1v-1.7l-3.4,0
			l-2.4,0l-0.1-6.9l-0.1-7.5L46,46.4c-0.1-0.2-0.7-1.3-1.2-2.4L44,42.1v-6v-5.7l0.4-0.1c1.4-0.3,2.6-0.8,5.8-2.6
			c1.8-1,2.8-1.3,3.8-1.1c0.6,0.1,1.1,0.3,2.7,1.4c1.8,1.2,3.4,1.7,5.2,1.8c0.3,0,0.3,0,0.4,0c0,0.1,0,0.1,0,0.1c-0.1,0-0.2,0-0.5,0
			h-1.2l-0.3,0.9c-0.1,0.4-0.8,2.4-1.5,4.6c-0.7,2.2-1.5,4.7-1.8,5.5c-0.3,0.9-1.1,3.4-1.8,5.5c-0.7,2.2-1.4,4.4-1.6,4.9l-0.2,0.6
			l-1.7,0l-3,0l0.8,1.1c1.4,1.9,3.9,3.5,6.6,4.4c3.6,1.1,8.2,1.3,12.1,0.5c1.7-0.4,2.8-0.7,4.3-1.5c1.8-0.9,3-1.8,4.3-3.4l0.9-1.1
			h-2.9h-1.5l-0.1-0.4c-0.1-0.4-0.5-1.6-0.9-2.8c-0.4-1.2-0.8-2.4-0.9-2.8c-0.1-0.3-0.5-1.5-0.8-2.5c-0.3-1.1-0.8-2.4-0.9-2.9
			c-0.3-0.9-1.4-4.3-2.7-8.5l-0.7-2.3h-1.3h-0.4v-0.1c0-0.2,0-0.2,0-0.3c1.8-0.6,3.1-2.2,3.5-4l0.3-1.8l-1.7,1.3
			c-0.3,0.2-0.8,0.5-1.3,0.8c-0.4,0.2-0.6,0.3-0.9,0.4v-0.7h-1.1h-1.1v0.9c0,0.1,0,0.2,0,0.2c0,0-0.1,0-0.2,0
			c-0.4-0.1-0.7-0.2-1.2-0.5s-1-0.8-1.8-1.6c-1.3-1.3-2.1-2-2.9-2.5c-0.8-0.4-1.6-0.5-2.5-0.5c-1.8,0-3,0.3-6.3,1.3
			c-0.9,0.3-1.9,0.6-2.7,0.8c-0.4,0.1-0.7,0.2-0.9,0.2c0-0.1,0-0.2,0-0.3c0-0.5,0-1.3,0-2.1l0-2.7l0.1,0c1.2-0.4,2.2-1.2,2.8-2.4
			c0.3-0.6,0.4-1,0.4-1.8c0-0.8-0.1-1.2-0.4-1.8C45.8,11.1,44.1,10.2,42.5,10.2L42.5,10.2z M62.2,32.3c0,0.2,0,0.6,0.1,1.3
			c0,1.4,0,4,0,8.5c0,2.8,0,5.3,0,7.2c0,0.9,0,1.7,0,2.2c0,0.2,0,0.4,0,0.5c-0.1,0-0.1,0-0.3,0c-0.5,0-1.4,0-3.1,0
			c-1.4,0-2.3,0-2.9,0c-0.1,0-0.1,0-0.2,0c0,0,0,0,0-0.1c0.1-0.3,0.2-0.8,0.4-1.2c0.6-1.9,1.3-3.9,2.3-6.9c0.5-1.4,1.4-4.2,2.2-6.7
			C61.4,34.7,62.1,32.5,62.2,32.3z M20.6,32.5l0,9.7l0,9.9h-3.3c-1,0-2,0-2.6,0c-0.2,0-0.4,0-0.5,0c0-0.1,0-0.1,0.1-0.2
			c0.1-0.4,0.3-1.1,0.5-1.7c0.4-1.3,1.4-4.2,2.1-6.4c0.7-2.2,1.7-5.2,2.2-6.6c0.5-1.5,1.1-3.2,1.3-3.9C20.4,33,20.5,32.7,20.6,32.5
			L20.6,32.5z M23,32.5c0,0.1,0,0.1,0.1,0.2c0.3,0.7,0.7,2.1,1.5,4.7c0.5,1.5,1.3,4.1,1.8,5.7c0.5,1.6,1.3,4.1,1.8,5.7
			c0.5,1.5,1,3,1.1,3.3c-0.2,0-0.3,0-0.5,0c-0.7,0-1.6,0-2.6,0c-1.6,0-2.5,0-3,0c-0.1,0-0.2,0-0.2,0c0-0.1,0-0.3,0-0.5
			c0-0.5,0-1.3,0-2.2c0-1.9,0-4.4,0-7.2c0-5.5,0-8.1,0.1-9.3C22.9,32.6,22.9,32.7,23,32.5L23,32.5z M64.6,32.6
			C64.6,32.6,64.6,32.6,64.6,32.6c0.2,0.6,0.6,1.7,1.3,3.9c0.3,1,1.2,3.9,2.5,7.7c0.9,2.7,1.5,4.8,2,6.2c0.2,0.7,0.4,1.2,0.5,1.6
			c0,0.1,0,0.1,0,0.1c-0.1,0-0.1,0-0.1,0c-0.5,0-1.4,0-3,0h-3.2v-9.9c0-5.6,0-8.3,0.1-9.5C64.6,32.6,64.6,32.6,64.6,32.6L64.6,32.6z
			"/>
		<path id="rect5205-3" inkscape:connector-curvature="0" class="st0" d="M2.8,70v15.8c0,5.8,4.7,10.5,10.5,10.5h73.5
			c5.8,0,10.5-4.7,10.5-10.5V70H2.8z"/>
		<g id="text4491">
			<g>
				<path class="st2" d="M15.5,86.5V88H9v-8.4h6.3v1.6H11V83h3.9v1.5H11v1.9H15.5z"/>
				<path class="st2" d="M22.7,83.7h1.8v3.4c-0.5,0.3-1,0.6-1.6,0.8c-0.6,0.2-1.2,0.3-1.8,0.3c-0.9,0-1.7-0.2-2.4-0.6
					s-1.2-0.9-1.6-1.5s-0.6-1.4-0.6-2.2c0-0.8,0.2-1.6,0.6-2.2s0.9-1.2,1.6-1.5s1.5-0.6,2.4-0.6c0.7,0,1.4,0.1,2,0.4
					c0.6,0.2,1.1,0.6,1.5,1.1l-1.2,1.2c-0.6-0.6-1.3-0.9-2.2-0.9c-0.5,0-1,0.1-1.4,0.3c-0.4,0.2-0.7,0.5-1,0.9
					c-0.2,0.4-0.3,0.9-0.3,1.4c0,0.5,0.1,1,0.3,1.4c0.2,0.4,0.6,0.7,1,1c0.4,0.2,0.9,0.3,1.4,0.3c0.6,0,1.1-0.1,1.5-0.4V83.7z"/>
				<path class="st2" d="M30.3,85v3h-1.9v-3l-3.3-5.4h2.1l2.2,3.7l2.2-3.7h1.9L30.3,85z"/>
				<path class="st2" d="M40.8,86.5V88h-6.5v-8.4h6.3v1.6h-4.4V83h3.9v1.5h-3.9v1.9H40.8z"/>
				<path class="st2" d="M50.1,79.6V88h-1.6l-4.2-5.1V88h-1.9v-8.4H44l4.2,5.1v-5.1H50.1z"/>
				<path class="st2" d="M52.1,79.6H54v6.8h4.2V88h-6.2V79.6z"/>
				<path class="st2" d="M60.9,87.6c-0.7-0.4-1.2-0.9-1.6-1.6c-0.4-0.7-0.6-1.4-0.6-2.2c0-0.8,0.2-1.6,0.6-2.2
					c0.4-0.7,0.9-1.2,1.6-1.6c0.7-0.4,1.5-0.6,2.4-0.6s1.7,0.2,2.4,0.6s1.2,0.9,1.6,1.6c0.4,0.7,0.6,1.4,0.6,2.2
					c0,0.8-0.2,1.6-0.6,2.2c-0.4,0.7-0.9,1.2-1.6,1.6s-1.5,0.6-2.4,0.6S61.6,88,60.9,87.6z M64.6,86.2c0.4-0.2,0.7-0.5,0.9-1
					c0.2-0.4,0.3-0.9,0.3-1.4c0-0.5-0.1-1-0.3-1.4c-0.2-0.4-0.5-0.7-0.9-1c-0.4-0.2-0.8-0.3-1.3-0.3s-0.9,0.1-1.3,0.3
					c-0.4,0.2-0.7,0.5-0.9,1c-0.2,0.4-0.3,0.9-0.3,1.4c0,0.5,0.1,1,0.3,1.4c0.2,0.4,0.5,0.7,0.9,1c0.4,0.2,0.8,0.3,1.3,0.3
					S64.2,86.4,64.6,86.2z M62.2,77.2H64l-1.2,1.7h-1.4L62.2,77.2z M64.6,77.2h1.8l-1.2,1.7h-1.4L64.6,77.2z"/>
				<path class="st2" d="M70.1,87.9c-0.6-0.2-1.1-0.4-1.5-0.7l0.7-1.5c0.4,0.3,0.8,0.5,1.3,0.6c0.5,0.2,1,0.2,1.5,0.2
					c0.6,0,1-0.1,1.2-0.2c0.3-0.2,0.4-0.4,0.4-0.7c0-0.2-0.1-0.4-0.2-0.5c-0.2-0.1-0.4-0.2-0.6-0.3c-0.2-0.1-0.6-0.2-1-0.3
					c-0.6-0.2-1.2-0.3-1.6-0.5c-0.4-0.2-0.8-0.4-1.1-0.7s-0.4-0.8-0.4-1.3c0-0.5,0.1-0.9,0.4-1.3c0.3-0.4,0.7-0.7,1.2-0.9
					c0.5-0.2,1.2-0.3,1.9-0.3c0.5,0,1.1,0.1,1.6,0.2c0.5,0.1,1,0.3,1.3,0.6l-0.6,1.5c-0.8-0.4-1.6-0.7-2.3-0.7
					c-0.5,0-0.9,0.1-1.2,0.3c-0.3,0.2-0.4,0.4-0.4,0.7s0.1,0.5,0.5,0.6c0.3,0.1,0.8,0.3,1.4,0.4c0.6,0.2,1.2,0.3,1.6,0.5
					c0.4,0.2,0.8,0.4,1,0.7s0.4,0.8,0.4,1.3c0,0.5-0.1,0.9-0.4,1.3s-0.7,0.7-1.2,0.9s-1.2,0.3-2,0.3C71.4,88.2,70.8,88.1,70.1,87.9z
					"/>
				<path class="st2" d="M83.5,86.5V88H77v-8.4h6.3v1.6h-4.4V83h3.9v1.5h-3.9v1.9H83.5z M80.7,77.2h2l-2.2,1.7h-1.5L80.7,77.2z"/>
				<path class="st2" d="M90.7,83.7h1.8v3.4c-0.5,0.3-1,0.6-1.6,0.8c-0.6,0.2-1.2,0.3-1.8,0.3c-0.9,0-1.7-0.2-2.4-0.6
					c-0.7-0.4-1.2-0.9-1.6-1.5s-0.6-1.4-0.6-2.2c0-0.8,0.2-1.6,0.6-2.2s0.9-1.2,1.6-1.5s1.5-0.6,2.4-0.6c0.7,0,1.4,0.1,2,0.4
					c0.6,0.2,1.1,0.6,1.5,1.1l-1.2,1.2c-0.6-0.6-1.3-0.9-2.2-0.9c-0.5,0-1,0.1-1.4,0.3c-0.4,0.2-0.7,0.5-1,0.9
					c-0.2,0.4-0.3,0.9-0.3,1.4c0,0.5,0.1,1,0.3,1.4c0.2,0.4,0.6,0.7,1,1s0.9,0.3,1.4,0.3c0.6,0,1.1-0.1,1.5-0.4V83.7z"/>
			</g>
		</g>
	</g>
	<text transform="matrix(1 0 0 1 -1271.9564 -165.7234)" style="fill:#EEEEEE; font-family:'Montserrat-Medium'; font-size:32px;">ORD</text>
</g>
</svg>
