<?xml version="1.0" encoding="utf-8"?>
<!-- Generator: Adobe Illustrator 22.1.0, SVG Export Plug-In . SVG Version: 6.00 Build 0)  -->
<svg version="1.1"
	 id="svg8" inkscape:version="0.92.1 r15371" sodipodi:docname="liberty.svg" xmlns:cc="http://creativecommons.org/ns#" xmlns:dc="http://purl.org/dc/elements/1.1/" xmlns:inkscape="http://www.inkscape.org/namespaces/inkscape" xmlns:rdf="http://www.w3.org/1999/02/22-rdf-syntax-ns#" xmlns:sodipodi="http://sodipodi.sourceforge.net/DTD/sodipodi-0.dtd" xmlns:svg="http://www.w3.org/2000/svg"
	 xmlns="http://www.w3.org/2000/svg" xmlns:xlink="http://www.w3.org/1999/xlink" x="0px" y="0px" viewBox="0 0 200 200"
	 style="enable-background:new 0 0 200 200;" xml:space="preserve">
<style type="text/css">
	.st0{fill:#222222;}
	.st1{fill:#FFEB3B;}
	.st2{fill:#FFFFFF;}
</style>
<defs>
	
	
		<inkscape:path-effect  bendpath1="m -199.08406,108.42369 h 7.0057" bendpath2="m -192.07836,108.42369 v 6.75242" bendpath3="m -199.08406,115.17611 h 7.0057" bendpath4="m -199.08406,108.42369 v 6.75242" effect="envelope" id="path-effect4658" is_visible="true" xx="true" yy="true">
		</inkscape:path-effect>
	
		<inkscape:path-effect  bendpath="m -192.00142,114.60623 c 2.12577,-0.53066 4.48261,0.85111 7.0057,0" bendpath-nodetypes="cc" effect="bend_path" id="path-effect4656" is_visible="true" prop_scale="1" scale_y_rel="false" vertical="false">
		</inkscape:path-effect>
	<inkscape:path-effect  effect="bounding_box" id="path-effect4654" is_visible="true" linkedpath="" visualbounds="false">
		</inkscape:path-effect>
</defs>
<sodipodi:namedview  bordercolor="#666666" borderopacity="1.0" fit-margin-bottom="0" fit-margin-left="0" fit-margin-right="0" fit-margin-top="0" id="base" inkscape:current-layer="layer1" inkscape:cx="616.35575" inkscape:cy="150.46772" inkscape:document-units="px" inkscape:object-nodes="true" inkscape:pageopacity="0.0" inkscape:pageshadow="2" inkscape:snap-page="true" inkscape:window-height="1016" inkscape:window-maximized="1" inkscape:window-width="1920" inkscape:window-x="0" inkscape:window-y="27" inkscape:zoom="0.5" pagecolor="#ffffff" showgrid="false" showguides="false" units="px">
	</sodipodi:namedview>
<g id="layer1" transform="translate(98.048812,-95.14345)" inkscape:groupmode="layer" inkscape:label="Layer 1">
	<g id="g5146" transform="matrix(2,0,0,2,-98.048813,95.143449)">
		<path id="rect5134" class="st0" d="M7.5,0h85c4.1,0,7.5,3.4,7.5,7.5v85c0,4.1-3.4,7.5-7.5,7.5h-85C3.4,100,0,96.6,0,92.5v-85
			C0,3.4,3.4,0,7.5,0z"/>
		<path id="rect5136" class="st1" d="M10,5h80c2.8,0,5,2.2,5,5v80c0,2.8-2.2,5-5,5H10c-2.8,0-5-2.2-5-5V10C5,7.2,7.2,5,10,5z"/>
		
			<path id="path4587" inkscape:connector-curvature="0" sodipodi:nodetypes="cccccscsccsccccccccsccccccssccsccsccccccccccscccscccccccccccscsscsscccccsscsssccscccccccscccsccssscccccccccscccccccccccccccccsccccccsccccccccccccccccccccc" class="st0" d="
			M40.9,81.2c-0.8-0.2-2.5-0.7-2.9-0.9c-0.2-0.1-0.7-0.3-1.1-0.4c-1.9-0.6-3.4-1.7-4.4-3c-1.3-1.9-5.6-9.6-5.6-10.2
			c0-0.1,0.2-0.5,0.3-0.8c0.9-1.5,1.3-3,1-4.1c-0.1-0.3-0.1-0.8-0.1-1c0-0.4-0.1-0.5-1.5-0.6c-0.6-0.1-1.3-0.2-1.4-0.3
			c-0.3-0.1-0.3-0.2-0.3-0.7c0-0.3,0.1-0.6,0.1-0.7c0.1-0.1,0.1-0.5,0-1.4c-0.3-4.1,0.1-5.9,1.8-7.7l0.4-0.4l-0.8-1.8
			c-0.7-1.7-2.5-6.2-2.8-7.2c-0.2-0.8-0.6-2.6-0.8-3.9c-0.1-0.7-0.2-1.4-0.3-1.6c-0.1-0.2-0.1-1-0.1-1.6c0-0.7,0-1.5-0.1-1.9
			L22.3,30l-0.4,0.5c-0.5,0.6-1.2,0.9-1.6,0.8c-0.2,0-0.5-0.3-0.8-0.5L19,30.3v-1c0-0.6-0.1-1-0.1-1c-0.2,0-0.1-1.4,0.1-1.7
			c0.3-0.4,0.2-0.8-0.1-1.2c-0.2-0.2-0.3-0.4-0.3-0.5c0-0.1-0.1-0.3-0.2-0.5c-0.2-0.3-0.2-0.4,0-1.1c0.1-0.4,0.2-1,0.2-1.2
			c0-0.5,0-0.5-0.6-0.7c-0.8-0.3-1.2-0.6-1.7-1.4c-0.3-0.6-0.4-0.7-0.4-2c0-1.2,0-1.5,0.4-2.4c0.5-1.2,1.2-2.3,2-2.9
			c0.5-0.4,0.6-0.5,0.8-1.2c0.2-1,0.8-1.7,1.7-2.2c0.5-0.3,0.9-0.4,2-0.5c0.7-0.1,1.5-0.1,1.6-0.2c0.2-0.1,0.3,0,0.5,0.3
			c0.3,0.4,1.1,0.8,1.5,0.8c0.2,0,0.2,0.1,0.2,0.5c-0.1,0.6,0.1,0.7,0.7,0.7c0.2,0,0.7,0.1,0.9,0.1c0.6,0.2,1.3,0,1.7-0.4
			c0.4-0.4,0.4-0.3,0.4,0.5c0,0.9-0.3,1.6-0.8,1.6c-0.4,0-1,0.4-1.3,0.8c-0.3,0.4-0.1,0.9,0.6,1.3c0.6,0.4,0.7,0.6,0.3,0.9
			C28.8,16,28.8,16,29,16.4c0.3,0.5,0.3,2.1,0,2.9c-0.3,0.9-1.4,1.8-2.9,2.5l-0.8,0.3L26,23c1.1,1.5,1.5,2.6,1.9,4.5
			c0.4,1.9,1.1,3.9,2.2,6c1.9,3.7,2.1,4.2,2.7,5.9c0.3,0.9,0.6,1.8,0.6,1.9c0,0.1,0.1,0.2,0.1,0.2c0.2,0,5.7-1,5.7-1
			c0,0,0.3-2.1,0.3-2.4c0-0.2-0.4-0.5-2.9-1.7c-4.2-2.1-5.7-3-5.8-3c0,0,0-0.1,0.1-0.2c0.1-0.1,0.5,0,1.1,0.1
			c0.6,0.1,1.7,0.4,2.6,0.6c0.9,0.2,2.5,0.6,3.7,0.9c1.2,0.3,2.2,0.5,2.3,0.5c0.2,0,1.8-1.2,1.8-1.4c0-0.2-3.3-6.7-3.4-6.8
			c-0.1,0-0.1-0.1-0.1-0.2c0-0.1-0.1-0.2-0.1-0.2c-0.1,0-0.1-0.1-0.1-0.2c0-0.2-0.2-0.7-0.4-0.8c0,0-0.1-0.2-0.1-0.3
			c0-0.2,0.3,0.1,3.1,3.2c0.8,0.9,1.9,2.1,2.5,2.7l1.1,1.2h1.1h1.1l0.3-1.6c0.2-0.9,0.6-2.9,0.9-4.4c0.3-1.6,0.6-2.8,0.6-2.9
			c0,0,0.1,1.4,0.3,5.1c0.1,1.4,0.2,2.9,0.2,3.4l0.1,0.9l1,0.4c0.5,0.2,1,0.4,1,0.4c0.1,0,5.6-5.1,6.2-5.8c0.5-0.5,0.7-0.6,0.6-0.2
			c0,0.1-0.1,0.3-0.2,0.3c-0.1,0-0.1,0.1-0.1,0.2c0,0.1,0,0.2-0.1,0.2c-0.1,0-0.1,0.1-0.2,0.2c-0.1,0.2-0.5,1-0.9,1.7
			c-0.1,0.2-0.9,1.5-1.7,3l-1.5,2.7l0.6,0.4l0.6,0.4l2.1-0.6c1.2-0.3,3.2-0.9,4.5-1.3c1.3-0.4,2.4-0.7,2.5-0.6c0,0-1.6,1.1-3.7,2.5
			c-2.7,1.7-3.7,2.5-3.7,2.6c0,0.1,0.2,0.6,0.4,1.1c0.3,0.8,0.3,1.1,0.4,2.8c0,1.8,0,1.8,0.4,2.7c0.4,0.8,0.4,1,0.5,2.1
			c0,1,0,1.3-0.2,1.7c-0.3,0.7-0.3,0.8,0.1,1.2c0.2,0.2,0.7,0.4,1.5,0.6c2.1,0.6,4.2,1.6,4.9,2.3c0.7,0.8,1.1,1.8,1.3,3.1
			c0.3,2.5,0.5,12.4,0.5,14.1L66,73l-0.7,1.4c-1,2-1.7,3-2.4,3.6c-0.3,0.3-1,1-1.5,1.6c-0.5,0.6-1.1,1.4-1.4,1.6
			c-1.1,1-3.3,2.7-4.5,3.4c-0.7,0.4-1.6,1-2.1,1.3c-1.5,0.9-2.7,1.5-4.6,2.1c-1,0.3-2.3-7.8-3-7.6c-1.3,0.5-3,0.8-3.8,0.8
			C41.7,81.3,41.3,81.3,40.9,81.2L40.9,81.2z M42.2,50.3c0.3-0.4,0.5-0.9,0.5-1.4c0-0.4-0.1-0.5-0.6-0.7c-0.3-0.1-0.9-0.5-1.2-0.9
			l-0.7-0.6l-1.4,0.4c-1.7,0.5-1.8,0.7-0.7,1.6c0.5,0.4,1,0.7,1.6,1c0.5,0.2,1.2,0.5,1.5,0.6C41.9,50.7,41.8,50.7,42.2,50.3
			L42.2,50.3z M40.1,44.1c0-0.1,0-0.5-0.2-0.8l-0.2-0.5l-3.1,0l-3.1,0l0.7,0.3c0.4,0.2,0.8,0.5,1.1,0.9c0.2,0.3,0.7,0.9,1,1.2
			l0.6,0.6l1.6-0.8C39.6,44.6,40.1,44.3,40.1,44.1L40.1,44.1z"/>
		<path id="rect5205" inkscape:connector-curvature="0" class="st0" d="M2.7,70v15.8c0,5.8,4.7,10.5,10.5,10.5h73.5
			c5.8,0,10.5-4.7,10.5-10.5V70H2.7z"/>
		<g id="text5142">
			<g>
				<path class="st2" d="M10.7,87.7C10,87.5,9.5,87.3,9.1,87l0.7-1.5c0.4,0.3,0.8,0.5,1.3,0.7c0.5,0.2,1,0.3,1.6,0.3
					c0.6,0,1-0.1,1.3-0.3c0.3-0.2,0.4-0.4,0.4-0.7c0-0.2-0.1-0.4-0.2-0.5c-0.2-0.1-0.4-0.2-0.6-0.3c-0.3-0.1-0.6-0.2-1-0.3
					c-0.7-0.2-1.2-0.3-1.6-0.5c-0.4-0.2-0.8-0.4-1.1-0.8s-0.5-0.8-0.5-1.4c0-0.5,0.1-1,0.4-1.4s0.7-0.7,1.2-1s1.2-0.4,2-0.4
					c0.6,0,1.1,0.1,1.6,0.2c0.5,0.1,1,0.3,1.4,0.6l-0.6,1.5c-0.8-0.5-1.6-0.7-2.4-0.7c-0.6,0-1,0.1-1.3,0.3
					c-0.3,0.2-0.4,0.4-0.4,0.7c0,0.3,0.2,0.5,0.5,0.7c0.3,0.1,0.8,0.3,1.4,0.4c0.7,0.2,1.2,0.3,1.6,0.5c0.4,0.2,0.8,0.4,1.1,0.8
					c0.3,0.3,0.5,0.8,0.5,1.4c0,0.5-0.1,1-0.4,1.4c-0.3,0.4-0.7,0.7-1.3,1s-1.2,0.4-2,0.4C12,88,11.3,87.9,10.7,87.7z"/>
				<path class="st2" d="M24.9,86.2v1.6h-7.6v-1.3l4.8-5.8h-4.7v-1.6h7.4v1.3l-4.8,5.8H24.9z"/>
				<path class="st2" d="M31.9,86h-4.1l-0.8,1.9H25l3.9-8.8h2l3.9,8.8h-2.1L31.9,86z M31.3,84.5l-1.4-3.4l-1.4,3.4H31.3z"/>
				<path class="st2" d="M43.3,84.1c0.3,0.4,0.4,0.8,0.4,1.4c0,0.8-0.3,1.4-0.9,1.8c-0.6,0.4-1.5,0.6-2.6,0.6h-4.5v-8.8H40
					c1.1,0,1.9,0.2,2.5,0.6c0.6,0.4,0.9,1,0.9,1.7c0,0.4-0.1,0.8-0.3,1.1c-0.2,0.3-0.5,0.6-0.9,0.8C42.7,83.5,43.1,83.7,43.3,84.1z
					 M37.8,80.6v2.1h2c0.5,0,0.9-0.1,1.1-0.3c0.3-0.2,0.4-0.4,0.4-0.8c0-0.3-0.1-0.6-0.4-0.8c-0.3-0.2-0.6-0.3-1.1-0.3H37.8z
					 M41.3,86.1c0.3-0.2,0.4-0.4,0.4-0.8c0-0.7-0.5-1.1-1.6-1.1h-2.4v2.2h2.4C40.7,86.3,41.1,86.3,41.3,86.1z"/>
				<path class="st2" d="M51.1,86H47l-0.8,1.9h-2.1l3.9-8.8h2l3.9,8.8h-2.1L51.1,86z M50.4,84.5L49,81.1l-1.4,3.4H50.4z"/>
				<path class="st2" d="M54.9,79.1h4c0.9,0,1.8,0.2,2.5,0.5c0.7,0.4,1.3,0.9,1.7,1.5c0.4,0.7,0.6,1.4,0.6,2.3s-0.2,1.6-0.6,2.3
					c-0.4,0.7-1,1.2-1.7,1.5c-0.7,0.4-1.6,0.5-2.5,0.5h-4V79.1z M58.8,86.2c0.9,0,1.6-0.2,2.1-0.7c0.5-0.5,0.8-1.1,0.8-2
					c0-0.8-0.3-1.5-0.8-2c-0.5-0.5-1.2-0.7-2.1-0.7h-1.9v5.4H58.8z"/>
				<path class="st2" d="M66.1,87.7c-0.6-0.2-1.2-0.4-1.6-0.7l0.7-1.5c0.4,0.3,0.8,0.5,1.3,0.7c0.5,0.2,1,0.3,1.5,0.3
					c0.6,0,1-0.1,1.3-0.3c0.3-0.2,0.4-0.4,0.4-0.7c0-0.2-0.1-0.4-0.2-0.5c-0.2-0.1-0.4-0.2-0.6-0.3c-0.3-0.1-0.6-0.2-1-0.3
					c-0.7-0.2-1.2-0.3-1.6-0.5c-0.4-0.2-0.8-0.4-1.1-0.8c-0.3-0.4-0.5-0.8-0.5-1.4c0-0.5,0.1-1,0.4-1.4s0.7-0.7,1.2-1s1.2-0.4,2-0.4
					c0.6,0,1.1,0.1,1.6,0.2c0.5,0.1,1,0.3,1.4,0.6l-0.6,1.5c-0.8-0.5-1.6-0.7-2.4-0.7c-0.6,0-1,0.1-1.3,0.3
					c-0.3,0.2-0.4,0.4-0.4,0.7c0,0.3,0.2,0.5,0.5,0.7c0.3,0.1,0.8,0.3,1.4,0.4c0.7,0.2,1.2,0.3,1.6,0.5c0.4,0.2,0.8,0.4,1.1,0.8
					c0.3,0.3,0.5,0.8,0.5,1.4c0,0.5-0.1,1-0.4,1.4s-0.7,0.7-1.3,1c-0.6,0.2-1.2,0.4-2,0.4C67.4,88,66.7,87.9,66.1,87.7z"/>
				<path class="st2" d="M78.9,86h-4.1l-0.8,1.9H72l3.9-8.8h2l3.9,8.8h-2.1L78.9,86z M78.3,84.5l-1.4-3.4l-1.4,3.4H78.3z M77.5,76.6
					h2.1l-2.3,1.8h-1.5L77.5,76.6z"/>
				<path class="st2" d="M88.5,83.4h1.8v3.6c-0.5,0.4-1,0.6-1.6,0.8c-0.6,0.2-1.3,0.3-1.9,0.3c-0.9,0-1.7-0.2-2.5-0.6
					c-0.7-0.4-1.3-0.9-1.7-1.6c-0.4-0.7-0.6-1.5-0.6-2.3s0.2-1.6,0.6-2.3c0.4-0.7,1-1.2,1.7-1.6c0.7-0.4,1.6-0.6,2.5-0.6
					c0.8,0,1.5,0.1,2.1,0.4c0.6,0.3,1.1,0.6,1.6,1.1l-1.3,1.2c-0.6-0.7-1.4-1-2.3-1c-0.6,0-1.1,0.1-1.5,0.3c-0.4,0.2-0.8,0.6-1,1
					c-0.2,0.4-0.4,0.9-0.4,1.5c0,0.5,0.1,1,0.4,1.5c0.2,0.4,0.6,0.8,1,1c0.4,0.2,0.9,0.4,1.5,0.4c0.6,0,1.1-0.1,1.6-0.4V83.4z"/>
			</g>
		</g>
	</g>
</g>
</svg>
