<?xml version="1.0" encoding="utf-8"?>
<!-- Generator: Adobe Illustrator 22.1.0, SVG Export Plug-In . SVG Version: 6.00 Build 0)  -->
<svg version="1.1"
	 id="svg8" inkscape:version="0.92.1 r15371" sodipodi:docname="progress.svg" xmlns:cc="http://creativecommons.org/ns#" xmlns:dc="http://purl.org/dc/elements/1.1/" xmlns:inkscape="http://www.inkscape.org/namespaces/inkscape" xmlns:rdf="http://www.w3.org/1999/02/22-rdf-syntax-ns#" xmlns:sodipodi="http://sodipodi.sourceforge.net/DTD/sodipodi-0.dtd" xmlns:svg="http://www.w3.org/2000/svg"
	 xmlns="http://www.w3.org/2000/svg" xmlns:xlink="http://www.w3.org/1999/xlink" x="0px" y="0px" viewBox="0 0 200 200"
	 style="enable-background:new 0 0 200 200;" xml:space="preserve">
<style type="text/css">
	.st0{fill:#222222;}
	.st1{fill:#9C27B0;}
	.st2{fill:#FFFFFF;}
</style>
<defs>
	
	
		<inkscape:path-effect  bendpath1="m -199.08406,108.42369 h 7.0057" bendpath2="m -192.07836,108.42369 v 6.75242" bendpath3="m -199.08406,115.17611 h 7.0057" bendpath4="m -199.08406,108.42369 v 6.75242" effect="envelope" id="path-effect4658" is_visible="true" xx="true" yy="true">
		</inkscape:path-effect>
	
		<inkscape:path-effect  bendpath="m -192.00142,114.60623 c 2.12577,-0.53066 4.48261,0.85111 7.0057,0" bendpath-nodetypes="cc" effect="bend_path" id="path-effect4656" is_visible="true" prop_scale="1" scale_y_rel="false" vertical="false">
		</inkscape:path-effect>
	<inkscape:path-effect  effect="bounding_box" id="path-effect4654" is_visible="true" linkedpath="" visualbounds="false">
		</inkscape:path-effect>
</defs>
<sodipodi:namedview  bordercolor="#666666" borderopacity="1.0" fit-margin-bottom="0" fit-margin-left="0" fit-margin-right="0" fit-margin-top="0" id="base" inkscape:current-layer="layer1" inkscape:cx="616.35575" inkscape:cy="150.46772" inkscape:document-units="px" inkscape:object-nodes="true" inkscape:pageopacity="0.0" inkscape:pageshadow="2" inkscape:snap-page="true" inkscape:window-height="1016" inkscape:window-maximized="1" inkscape:window-width="1920" inkscape:window-x="0" inkscape:window-y="27" inkscape:zoom="0.5" pagecolor="#ffffff" showgrid="false" showguides="false" units="px">
	</sodipodi:namedview>
<g id="layer1" transform="translate(98.048812,-95.14345)" inkscape:groupmode="layer" inkscape:label="Layer 1">
	<g id="g5375" transform="matrix(2,0,0,2,-98.048812,95.143449)">
		<path id="rect5363" class="st0" d="M7.5,0h85c4.1,0,7.5,3.4,7.5,7.5v85c0,4.1-3.4,7.5-7.5,7.5h-85C3.4,100,0,96.6,0,92.5v-85
			C0,3.4,3.4,0,7.5,0z"/>
		<path id="rect5365" class="st1" d="M10,5h80c2.8,0,5,2.2,5,5v80c0,2.8-2.2,5-5,5H10c-2.8,0-5-2.2-5-5V10C5,7.2,7.2,5,10,5z"/>
		<path id="text5407" inkscape:connector-curvature="0" class="st0" d="M40.8,13c-0.2,0-0.4,0.2-0.5,0.4c0,0,0,0,0,0
			c-2,0.3-3.9,1.5-5.6,4.3c-1.8,2.9-3.2,7.1-4.2,12.4c-4.9-1.7-9.2-2.6-12.6-2.6c-3.6,0.1-6.1,1-7.3,3c0,0,0,0,0,0
			c-0.4,0.7-0.6,1.5-0.6,2.4c0,1.6,0.6,3.4,1.7,5.4c1.6,3,4.6,6.3,8.5,9.7c-4,3.5-6.9,6.8-8.6,9.8c0,0,0,0,0,0c-1,2-1.6,3.7-1.6,5.3
			c0,0.9,0.2,1.7,0.6,2.4c0,0,0,0,0,0c1.1,2,3.6,2.9,7.1,3c0,0,0,0,0,0c3.5,0.1,7.8-0.9,12.7-2.6c1,5.1,2.4,9.3,4.1,12.2
			c0,0,0,0,0,0c1.9,3.1,4,4.8,6.3,4.8c2.3,0,4.3-1.7,6.2-4.8c0,0,0,0,0,0c1.8-3,3.1-7.1,4.1-12.2c5,1.7,9.3,2.7,12.8,2.6
			c3.6-0.1,6-1,7.1-3v0c0.4-0.7,0.6-1.5,0.6-2.5c0-1.5-0.6-3.3-1.6-5.2c0,0,0,0,0,0c-1.7-3-4.7-6.3-8.7-9.7c3.9-3.4,6.9-6.7,8.6-9.7
			h0c1.1-2,1.7-3.7,1.7-5.3c0-0.9-0.2-1.7-0.6-2.5c-1.1-2-3.7-2.9-7.3-3c-3.4-0.1-7.7,0.9-12.6,2.6c-1-5.2-2.4-9.4-4.2-12.4
			C45.1,14.7,43.1,13,40.8,13C40.9,13,40.9,13,40.8,13L40.8,13z M40.9,16.6c0.6,0,1.2,0.3,1.8,0.9c0.7,0.6,1.4,1.6,2.1,2.9
			c1.3,2.5,2.4,6.2,3.2,10.8c-2.4,0.9-4.7,1.9-7,3.1c-2.4-1.2-4.8-2.2-7.2-3.1c0.8-4.7,1.9-8.4,3.2-10.8c0.7-1.3,1.4-2.3,2.1-2.9
			C39.7,16.8,40.3,16.6,40.9,16.6L40.9,16.6z M18,30.7c0.3,0,0.7,0,1.1,0c2.8,0.1,6.5,1.1,10.8,2.7c-0.4,2.5-0.7,5.1-0.8,7.7
			c-2.2,1.5-4.3,3-6.2,4.6c-3.5-2.9-6.2-5.6-7.7-8c0,0,0,0,0,0c-0.8-1.3-1.3-2.4-1.5-3.3c-0.2-0.9-0.1-1.6,0.2-2.1c0,0,0,0,0,0
			c0.3-0.5,0.8-0.9,1.7-1.2C16.1,30.9,17,30.7,18,30.7L18,30.7z M63.7,30.7c1,0,1.9,0.1,2.6,0.3c0.9,0.3,1.4,0.7,1.7,1.2
			c0.3,0.5,0.4,1.2,0.2,2.1c-0.2,0.9-0.7,2-1.6,3.3c0,0,0,0,0,0c-1.5,2.4-4.2,5.2-7.8,8.1c-2-1.6-4-3.1-6.2-4.6
			c-0.2-2.6-0.5-5.2-0.9-7.7c4.3-1.6,8-2.5,10.9-2.7h0C63,30.7,63.4,30.7,63.7,30.7L63.7,30.7z M48.5,34.7c0.2,1.3,0.3,2.7,0.4,4.1
			c-0.7-0.4-1.3-0.8-2-1.2c0,0,0,0,0,0c-0.7-0.4-1.4-0.8-2.2-1.2C46,35.7,47.3,35.2,48.5,34.7L48.5,34.7z M33.2,34.7
			c1.2,0.5,2.5,1.1,3.7,1.6c-0.7,0.4-1.4,0.8-2.1,1.2c0,0,0,0,0,0c-0.7,0.4-1.4,0.8-2,1.2C32.9,37.4,33,36,33.2,34.7L33.2,34.7z
			 M40.8,38.2c1.4,0.8,2.9,1.5,4.3,2.3c1.4,0.8,2.8,1.6,4.1,2.5c0.1,1.6,0.1,3.2,0.1,4.9c0,1.6,0,3.3-0.1,4.9
			c-1.3,0.9-2.7,1.7-4.1,2.5c0,0,0,0,0,0c-1.4,0.8-2.8,1.6-4.2,2.4c-1.4-0.7-2.9-1.5-4.2-2.4c0,0,0,0,0,0c-1.5-0.8-2.8-1.6-4.2-2.5
			c-0.1-1.6-0.1-3.2-0.1-4.9c0-1.7,0-3.3,0.1-4.9c1.4-0.9,2.7-1.7,4.2-2.5c0,0,0,0,0,0C38,39.8,39.4,39,40.8,38.2L40.8,38.2z
			 M40.9,43.9c-0.7,0-1.4,0.2-2,0.5c-0.6,0.3-1.2,0.8-1.5,1.5c-0.4,0.6-0.5,1.3-0.5,2.1c0,0.7,0.2,1.4,0.5,2c0,0,0,0,0,0
			c0.4,0.6,0.9,1.1,1.5,1.5c0.6,0.4,1.3,0.5,2,0.5c0.7,0,1.4-0.2,2-0.5c0.6-0.4,1.2-0.8,1.5-1.5c0,0,0,0,0,0c0.4-0.6,0.5-1.3,0.5-2
			c0-0.7-0.2-1.4-0.5-2.1c-0.4-0.6-0.9-1.2-1.5-1.5C42.3,44.1,41.6,43.9,40.9,43.9L40.9,43.9z M28.9,45.5c0,0.8,0,1.6,0,2.4
			c0,0.8,0,1.6,0,2.4c-1.1-0.8-2.3-1.6-3.3-2.4C26.6,47.1,27.7,46.3,28.9,45.5z M52.9,45.5c1.2,0.8,2.3,1.6,3.4,2.4
			c-1.1,0.8-2.2,1.6-3.4,2.4c0-0.8,0.1-1.6,0.1-2.4C52.9,47.1,52.9,46.3,52.9,45.5z M22.8,50.2c2,1.6,4.1,3.1,6.3,4.6
			c0.2,2.6,0.5,5.2,0.8,7.7c-4.4,1.6-8.1,2.6-10.9,2.7c-1.5,0.1-2.7-0.1-3.6-0.3c-0.9-0.3-1.4-0.7-1.7-1.2c-0.3-0.5-0.4-1.2-0.2-2
			c0.2-0.9,0.7-2,1.5-3.3c0,0,0,0,0,0C16.5,55.9,19.2,53.2,22.8,50.2L22.8,50.2z M58.9,50.2c3.6,3,6.3,5.7,7.8,8.1c0,0,0,0,0,0
			c0.8,1.3,1.3,2.4,1.5,3.3c0.2,0.9,0.1,1.5-0.2,2c0,0,0,0,0,0c-0.3,0.5-0.8,0.9-1.7,1.2c-0.9,0.3-2.1,0.4-3.6,0.3
			c-2.8-0.1-6.6-1.1-11-2.7c0.4-2.5,0.7-5.1,0.8-7.7C54.8,53.3,56.9,51.8,58.9,50.2L58.9,50.2z M32.8,57.1c0.7,0.4,1.3,0.9,2.1,1.3
			c0.7,0.4,1.4,0.8,2.1,1.2c-1.3,0.6-2.5,1.1-3.8,1.7C33,59.9,32.9,58.5,32.8,57.1L32.8,57.1z M48.9,57.1c-0.1,1.4-0.3,2.7-0.4,4.1
			c-1.2-0.5-2.5-1.1-3.7-1.7c0.7-0.4,1.4-0.8,2.2-1.2c0,0,0,0,0,0C47.6,58,48.3,57.5,48.9,57.1L48.9,57.1z M40.8,61.6
			c2.4,1.2,4.8,2.2,7.2,3.1c-0.8,4.5-1.8,8.2-3.1,10.7c0,0,0,0,0,0c-0.7,1.4-1.4,2.3-2.1,3c-0.7,0.6-1.3,0.9-1.9,0.9
			c-0.6,0-1.2-0.3-1.9-0.9c-0.7-0.6-1.4-1.6-2.1-3c-1.3-2.5-2.4-6.2-3.1-10.7C36.1,63.8,38.5,62.7,40.8,61.6L40.8,61.6z"/>
		<path id="path5369" inkscape:connector-curvature="0" class="st0" d="M2.8,70v15.8c0,5.8,4.7,10.5,10.5,10.5h73.5
			c5.8,0,10.5-4.7,10.5-10.5V70H2.8z"/>
		<g id="text5373">
			<g>
				<path class="st2" d="M22.1,77.6v10.5h-2.4v-4.3h-4.8v4.3h-2.4V77.6h2.4v4.1h4.8v-4.1H22.1z"/>
				<path class="st2" d="M31.5,85.9h-4.9l-0.9,2.3h-2.5l4.7-10.5h2.4L35,88.1h-2.6L31.5,85.9z M30.7,84l-1.7-4l-1.7,4H30.7z"/>
				<path class="st2" d="M36.1,77.6h2.4v8.5h5.3v2h-7.7V77.6z"/>
				<path class="st2" d="M52.1,85.9h-4.9l-0.9,2.3h-2.5l4.7-10.5h2.4l4.7,10.5h-2.6L52.1,85.9z M51.4,84l-1.7-4l-1.7,4H51.4z"/>
				<path class="st2" d="M56.7,77.6h4.8c1.1,0,2.1,0.2,3,0.7c0.9,0.4,1.6,1,2,1.8c0.5,0.8,0.7,1.7,0.7,2.8s-0.2,2-0.7,2.8
					c-0.5,0.8-1.2,1.4-2,1.8c-0.9,0.4-1.9,0.7-3,0.7h-4.8V77.6z M61.4,86.1c1,0,1.9-0.3,2.5-0.9c0.6-0.6,0.9-1.4,0.9-2.4
					s-0.3-1.8-0.9-2.4c-0.6-0.6-1.5-0.9-2.5-0.9h-2.2v6.5H61.4z"/>
				<path class="st2" d="M75.9,85.9H71l-0.9,2.3h-2.5l4.7-10.5h2.4l4.7,10.5h-2.6L75.9,85.9z M75.1,84l-1.7-4l-1.7,4H75.1z
					 M74.1,74.6h2.5l-2.7,2.2h-1.8L74.1,74.6z"/>
				<path class="st2" d="M81.5,88c-0.8-0.2-1.4-0.5-1.9-0.9l0.8-1.8c0.4,0.3,1,0.6,1.6,0.8c0.6,0.2,1.2,0.3,1.9,0.3
					c0.7,0,1.2-0.1,1.5-0.3c0.3-0.2,0.5-0.5,0.5-0.8c0-0.3-0.1-0.5-0.3-0.6c-0.2-0.2-0.4-0.3-0.8-0.4c-0.3-0.1-0.7-0.2-1.2-0.3
					c-0.8-0.2-1.5-0.4-2-0.6c-0.5-0.2-0.9-0.5-1.3-0.9c-0.4-0.4-0.5-1-0.5-1.7c0-0.6,0.2-1.2,0.5-1.7s0.8-0.9,1.5-1.2
					c0.7-0.3,1.5-0.4,2.4-0.4c0.7,0,1.3,0.1,2,0.2c0.6,0.2,1.2,0.4,1.7,0.7l-0.8,1.8c-1-0.6-1.9-0.8-2.9-0.8c-0.7,0-1.2,0.1-1.5,0.3
					c-0.3,0.2-0.5,0.5-0.5,0.9c0,0.4,0.2,0.6,0.6,0.8c0.4,0.2,0.9,0.3,1.7,0.5c0.8,0.2,1.5,0.4,2,0.6c0.5,0.2,0.9,0.5,1.3,0.9
					c0.4,0.4,0.5,1,0.5,1.7c0,0.6-0.2,1.1-0.5,1.6s-0.8,0.9-1.5,1.2c-0.7,0.3-1.5,0.4-2.4,0.4C83.1,88.3,82.3,88.2,81.5,88z"/>
			</g>
		</g>
	</g>
</g>
</svg>
