<?xml version="1.0" encoding="utf-8"?>
<!-- Generator: Adobe Illustrator 22.1.0, SVG Export Plug-In . SVG Version: 6.00 Build 0)  -->
<svg version="1.1"
	 id="svg8" inkscape:version="0.92.1 r15371" sodipodi:docname="tradition.svg" xmlns:cc="http://creativecommons.org/ns#" xmlns:dc="http://purl.org/dc/elements/1.1/" xmlns:inkscape="http://www.inkscape.org/namespaces/inkscape" xmlns:rdf="http://www.w3.org/1999/02/22-rdf-syntax-ns#" xmlns:sodipodi="http://sodipodi.sourceforge.net/DTD/sodipodi-0.dtd" xmlns:svg="http://www.w3.org/2000/svg"
	 xmlns="http://www.w3.org/2000/svg" xmlns:xlink="http://www.w3.org/1999/xlink" x="0px" y="0px" viewBox="0 0 200 200"
	 style="enable-background:new 0 0 200 200;" xml:space="preserve">
<style type="text/css">
	.st0{fill:#222222;}
	.st1{fill:#8BC34A;}
	.st2{fill:#FFFFFF;}
</style>
<defs>
	
	
		<inkscape:path-effect  bendpath1="m -199.08406,108.42369 h 7.0057" bendpath2="m -192.07836,108.42369 v 6.75242" bendpath3="m -199.08406,115.17611 h 7.0057" bendpath4="m -199.08406,108.42369 v 6.75242" effect="envelope" id="path-effect4658" is_visible="true" xx="true" yy="true">
		</inkscape:path-effect>
	
		<inkscape:path-effect  bendpath="m -192.00142,114.60623 c 2.12577,-0.53066 4.48261,0.85111 7.0057,0" bendpath-nodetypes="cc" effect="bend_path" id="path-effect4656" is_visible="true" prop_scale="1" scale_y_rel="false" vertical="false">
		</inkscape:path-effect>
	<inkscape:path-effect  effect="bounding_box" id="path-effect4654" is_visible="true" linkedpath="" visualbounds="false">
		</inkscape:path-effect>
</defs>
<sodipodi:namedview  bordercolor="#666666" borderopacity="1.0" fit-margin-bottom="0" fit-margin-left="0" fit-margin-right="0" fit-margin-top="0" id="base" inkscape:current-layer="layer1" inkscape:cx="616.35575" inkscape:cy="150.46772" inkscape:document-units="px" inkscape:object-nodes="true" inkscape:pageopacity="0.0" inkscape:pageshadow="2" inkscape:snap-page="true" inkscape:window-height="1016" inkscape:window-maximized="1" inkscape:window-width="1920" inkscape:window-x="0" inkscape:window-y="27" inkscape:zoom="0.5" pagecolor="#ffffff" showgrid="false" showguides="false" units="px">
	</sodipodi:namedview>
<g id="layer1" transform="translate(98.048812,-95.14345)" inkscape:groupmode="layer" inkscape:label="Layer 1">
	<g id="g5361" transform="matrix(2,0,0,2,-98.048813,95.143449)">
		<path id="rect5349" class="st0" d="M7.5,0h85c4.1,0,7.5,3.4,7.5,7.5v85c0,4.1-3.4,7.5-7.5,7.5h-85C3.4,100,0,96.6,0,92.5v-85
			C0,3.4,3.4,0,7.5,0z"/>
		<path id="rect5351" class="st1" d="M10,5h80c2.8,0,5,2.2,5,5v80c0,2.8-2.2,5-5,5H10c-2.8,0-5-2.2-5-5V10C5,7.2,7.2,5,10,5z"/>
		<path id="path5388" inkscape:connector-curvature="0" class="st0" d="M11.2,76.2c0.1-0.2,1.1-1.7,2.1-3.5l2-3.2V45.7V21.9
			l-2.2-3.5c-1.2-1.9-2.1-3.5-2-3.6c0.1-0.1,6.9,0,15.1,0.2c11.9,0.3,18,0.3,29.6,0c8.1-0.2,14.7-0.3,14.8-0.2
			c0.1,0.1-0.8,1.8-2,3.7l-2.2,3.6v23.7v23.7l2.2,3.5c1.2,1.9,2.2,3.5,2.2,3.5c0,0-13.4,0-29.8,0C21.1,76.5,11.1,76.4,11.2,76.2
			L11.2,76.2z M26.9,69.9c0,0-0.3-1-0.7-2.2c-1-2.8-1.3-5.4-1-7.4c0.6-3.4,2-5.2,7.3-8.8c4.6-3.1,5.1-3.6,5.1-5.6
			c0-2.1-0.7-3-4.8-5.8c-5.6-3.9-7.2-5.7-7.6-9c-0.3-2,0.1-5.4,0.8-7.8l0.5-1.8h-4h-4v23.9c0,18.9,0.1,23.9,0.4,24
			c0.4,0,5.7,0.4,7.2,0.5C26.5,70,26.9,70,26.9,69.9L26.9,69.9z M61.7,69.6l1.5-0.2V45.5V21.6h-4.1c-3.5,0-4,0.1-3.9,0.4
			c1.1,2.8,1.5,4.8,1.5,7.5c0,2.5-0.1,3.1-0.7,4.1c-1.1,2-2.9,3.7-6.2,6c-4.5,3-5.6,4.3-5.6,6.4c0,1.8,0.8,2.7,4.6,5.3
			c6.1,4.1,7.7,6.2,8,10.1c0.1,2.2-0.4,4.4-1.8,7.6L54.5,70l2.8-0.1C58.9,69.8,60.8,69.6,61.7,69.6L61.7,69.6z M54.1,63.3
			c0.6-2.2-0.3-4.5-2.4-6.3c-1.2-1.1-8.5-6-8.8-6c-0.3,0-0.1,2.7,0.3,4.6c0.7,3.2,2.5,5.9,4.7,7.1c1,0.5,3.6,1.1,4.8,1.2
			C53.7,64,53.9,63.9,54.1,63.3L54.1,63.3z M32.4,63.2c2.9-0.9,4.9-2.7,5.9-5.6c0.5-1.5,1.2-6.3,0.9-6.6c-0.2-0.2-4.9,2.7-7.4,4.6
			c-3,2.4-4.3,4.6-3.9,6.8c0.2,1.1,0.2,1.1,1.5,1.1C30.2,63.7,31.5,63.5,32.4,63.2L32.4,63.2z M48.1,35.3c3.4-0.8,5.2-2.2,5.8-4.4
			c0.4-1.5,0.1-3.9-1.1-7l-0.7-2H40.8H29.5L28.7,24c-1,2.7-1.3,6.6-0.6,7.9c1.1,2.1,3.5,3.4,7.5,3.9C38.5,36.1,45.9,35.8,48.1,35.3
			L48.1,35.3z"/>
		<path id="path5355" inkscape:connector-curvature="0" class="st0" d="M2.7,70v15.8c0,5.8,4.7,10.5,10.5,10.5h73.5
			c5.8,0,10.5-4.7,10.5-10.5V70H2.7z"/>
		<g id="text5359">
			<g>
				<path class="st2" d="M14.5,78.2v9.5h-2.2v-3.9H8.1v3.9H5.9v-9.5h2.2V82h4.3v-3.7H14.5z"/>
				<path class="st2" d="M22.3,85.7h-4.4l-0.8,2h-2.2l4.2-9.5h2.2l4.2,9.5h-2.3L22.3,85.7z M21.6,84l-1.5-3.6L18.6,84H21.6z"/>
				<path class="st2" d="M32,82.8h2v3.8c-0.5,0.4-1.1,0.7-1.8,0.9c-0.7,0.2-1.4,0.3-2,0.3c-1,0-1.9-0.2-2.6-0.6
					c-0.8-0.4-1.4-1-1.8-1.7C25.3,84.7,25,83.9,25,83s0.2-1.8,0.7-2.5c0.4-0.7,1.1-1.3,1.9-1.7c0.8-0.4,1.7-0.6,2.7-0.6
					c0.8,0,1.6,0.1,2.3,0.4s1.2,0.7,1.7,1.2L32.8,81c-0.7-0.7-1.5-1.1-2.4-1.1c-0.6,0-1.1,0.1-1.6,0.4c-0.5,0.3-0.8,0.6-1.1,1.1
					c-0.3,0.5-0.4,1-0.4,1.6c0,0.6,0.1,1.1,0.4,1.6c0.3,0.5,0.6,0.8,1.1,1.1c0.5,0.3,1,0.4,1.6,0.4c0.6,0,1.2-0.1,1.7-0.4V82.8z"/>
				<path class="st2" d="M39.9,84.3v3.3h-2.2v-3.4l-3.7-6.1h2.3l2.5,4.2l2.5-4.2h2.1L39.9,84.3z"/>
				<path class="st2" d="M45.3,87.2c-0.8-0.4-1.4-1-1.8-1.7c-0.4-0.7-0.7-1.6-0.7-2.5c0-0.9,0.2-1.8,0.7-2.5
					c0.4-0.7,1.1-1.3,1.8-1.7c0.8-0.4,1.7-0.6,2.7-0.6c1,0,1.9,0.2,2.6,0.6c0.8,0.4,1.4,1,1.8,1.7c0.5,0.7,0.7,1.6,0.7,2.5
					c0,0.9-0.2,1.8-0.7,2.5s-1.1,1.3-1.8,1.7c-0.8,0.4-1.7,0.6-2.6,0.6C47,87.8,46.1,87.6,45.3,87.2z M49.5,85.6
					c0.5-0.3,0.8-0.6,1.1-1.1c0.3-0.5,0.4-1,0.4-1.6c0-0.6-0.1-1.1-0.4-1.6c-0.3-0.5-0.6-0.8-1.1-1.1s-1-0.4-1.5-0.4
					c-0.6,0-1.1,0.1-1.5,0.4c-0.5,0.3-0.8,0.6-1.1,1.1S45,82.4,45,83c0,0.6,0.1,1.1,0.4,1.6s0.6,0.8,1.1,1.1c0.4,0.3,1,0.4,1.5,0.4
					C48.5,86,49,85.9,49.5,85.6z"/>
				<path class="st2" d="M62.7,87.7l0-5.7l-2.8,4.7h-1l-2.8-4.5v5.5h-2.1v-9.5h1.8l3.5,5.9l3.5-5.9h1.8l0,9.5H62.7z"/>
				<path class="st2" d="M72.6,85.7h-4.4l-0.8,2h-2.2l4.2-9.5h2.2l4.2,9.5h-2.3L72.6,85.7z M71.9,84l-1.5-3.6L68.9,84H71.9z
					 M71,75.5h2.3l-2.4,1.9h-1.6L71,75.5z"/>
				<path class="st2" d="M84.7,78.2v9.5h-1.8l-4.7-5.7v5.7H76v-9.5h1.8l4.7,5.7v-5.7H84.7z"/>
				<path class="st2" d="M90.8,84.3v3.3h-2.2v-3.4l-3.7-6.1h2.3l2.5,4.2l2.5-4.2h2.1L90.8,84.3z"/>
			</g>
		</g>
	</g>
</g>
</svg>
