<?xml version="1.0" encoding="utf-8"?>
<!-- Generator: Adobe Illustrator 22.1.0, SVG Export Plug-In . SVG Version: 6.00 Build 0)  -->
<svg version="1.1"
	 id="svg8" inkscape:version="0.92.1 r15371" sodipodi:docname="wealth.svg" xmlns:cc="http://creativecommons.org/ns#" xmlns:dc="http://purl.org/dc/elements/1.1/" xmlns:inkscape="http://www.inkscape.org/namespaces/inkscape" xmlns:rdf="http://www.w3.org/1999/02/22-rdf-syntax-ns#" xmlns:sodipodi="http://sodipodi.sourceforge.net/DTD/sodipodi-0.dtd" xmlns:svg="http://www.w3.org/2000/svg"
	 xmlns="http://www.w3.org/2000/svg" xmlns:xlink="http://www.w3.org/1999/xlink" x="0px" y="0px" viewBox="0 0 200 200"
	 style="enable-background:new 0 0 200 200;" xml:space="preserve">
<style type="text/css">
	.st0{fill:#222222;}
	.st1{fill:#00897B;}
	.st2{enable-background:new    ;}
	.st3{fill:#FFFFFF;}
</style>
<defs>
	
	
		<inkscape:path-effect  bendpath1="m -199.08406,108.42369 h 7.0057" bendpath2="m -192.07836,108.42369 v 6.75242" bendpath3="m -199.08406,115.17611 h 7.0057" bendpath4="m -199.08406,108.42369 v 6.75242" effect="envelope" id="path-effect4658" is_visible="true" xx="true" yy="true">
		</inkscape:path-effect>
	
		<inkscape:path-effect  bendpath="m -192.00142,114.60623 c 2.12577,-0.53066 4.48261,0.85111 7.0057,0" bendpath-nodetypes="cc" effect="bend_path" id="path-effect4656" is_visible="true" prop_scale="1" scale_y_rel="false" vertical="false">
		</inkscape:path-effect>
	<inkscape:path-effect  effect="bounding_box" id="path-effect4654" is_visible="true" linkedpath="" visualbounds="false">
		</inkscape:path-effect>
</defs>
<sodipodi:namedview  bordercolor="#666666" borderopacity="1.0" fit-margin-bottom="0" fit-margin-left="0" fit-margin-right="0" fit-margin-top="0" id="base" inkscape:current-layer="layer1" inkscape:cx="859.81981" inkscape:cy="-94.531022" inkscape:document-units="mm" inkscape:object-nodes="true" inkscape:pageopacity="0.0" inkscape:pageshadow="2" inkscape:snap-page="true" inkscape:window-height="1016" inkscape:window-maximized="1" inkscape:window-width="1920" inkscape:window-x="0" inkscape:window-y="27" inkscape:zoom="0.70710678" pagecolor="#ffffff" showgrid="false" showguides="false" units="px">
	</sodipodi:namedview>
<g id="layer1" transform="translate(249.80447,-91.409467)" inkscape:groupmode="layer" inkscape:label="Layer 1">
	<g id="g5334" transform="matrix(2,0,0,2,-249.80447,91.409467)">
		<path id="rect5322" class="st0" d="M7.5,0h85c4.1,0,7.5,3.4,7.5,7.5v85c0,4.1-3.4,7.5-7.5,7.5h-85C3.4,100,0,96.6,0,92.5v-85
			C0,3.4,3.4,0,7.5,0z"/>
		<path id="rect5324" class="st1" d="M10,5h80c2.8,0,5,2.2,5,5v80c0,2.8-2.2,5-5,5H10c-2.8,0-5-2.2-5-5V10C5,7.2,7.2,5,10,5z"/>
		<path id="path5326" inkscape:connector-curvature="0" class="st0" d="M2.8,70v15.8c0,5.8,4.7,10.5,10.5,10.5h73.5
			c5.8,0,10.5-4.7,10.5-10.5V70H2.8z"/>
		<path id="path5347" inkscape:connector-curvature="0" class="st0" d="M35.5,70l-0.1-3l-2.3-0.4c-2.5-0.4-5.8-1.4-7.6-2.2
			c-2.9-1.4-5.9-4.1-7-6.4c-0.6-1.2-0.7-1.8-0.7-3.4c0-2.3,0.6-3.5,2.1-4.8c1.6-1.3,3.4-1.9,5.7-1.9c2.2,0,3.7,0.4,5.1,1.7
			c4.8,4,2.2,10.6-4.5,11.2L24.6,61l0.7,0.6c1.3,1.2,4.2,2.4,7.8,3.1c2.5,0.5,2.2,1.6,2.2-9.7V45L34,44.5c-0.7-0.3-2.2-0.9-3.4-1.4
			c-5.5-2.3-9.3-5.6-10.7-9.4c-1.1-2.9-0.8-7.7,0.8-10.8c2.1-4.3,7.1-7.6,13.2-8.7l1.4-0.3V11V8h1h1v2.8v2.8H40h2.4v-2.8V8h1.1h1.1
			v2.9c0,1.6,0.1,2.9,0.2,2.9c0.8,0,3.6,0.6,5.1,1c6.2,1.9,9.9,5.1,10.3,9.1c0.2,1.8-0.3,3.1-1.6,4.4c-1.4,1.4-2.5,1.8-5,1.8
			c-2,0-2.3-0.1-3.5-0.7c-1.6-0.8-2.8-2.3-3.2-4c-0.3-1.1-0.2-1.4,0.2-2.7c0.5-1.6,1.1-2.2,2.9-3.3c0.8-0.5,1.4-0.6,2.4-0.6
			c0.7,0,1.4-0.1,1.4-0.2c0-0.6-3.9-2.1-6.5-2.6c-0.8-0.1-1.7-0.3-2-0.4l-0.6-0.1l0.1,9.1l0.1,9.1l2.4,0.9c5.2,1.9,9.7,4.2,12.1,6.3
			c3.3,2.9,4.4,4.9,4.6,8.6c0.2,4.1-0.6,7-2.8,10.1c-2,2.7-4.8,4.5-9.2,5.8c-1.5,0.4-3.7,0.9-4.9,1.1l-2.3,0.3V70v3h-1.1h-1.1v-3v-3
			H40h-2.4v3v3h-1h-1L35.5,70z M41.5,65h0.9v-8.9v-8.9l-2.2-0.8c-1.2-0.4-2.3-0.8-2.4-0.8c-0.2,0-0.2,3.4-0.2,9.7V65l1,0.1
			c0.6,0,1.3,0.1,1.5,0C40.4,65.1,41,65,41.5,65L41.5,65z M47.3,63.8c1.8-0.8,4-2.7,4.7-4.1c0.8-1.6,0.8-4.3,0-5.8
			c-1-2.1-2.7-3.6-6.1-5.1l-1.2-0.6v8.3v8.3l0.7-0.2C45.6,64.4,46.6,64.1,47.3,63.8L47.3,63.8z M42.4,24.3v-8.9h-1.5
			c-0.8,0-1.9,0.1-2.4,0.1l-0.9,0.1l0.1,8l0.1,8l0.6,0.2c0.3,0.1,1.4,0.4,2.3,0.7c0.9,0.3,1.7,0.6,1.8,0.6
			C42.4,33.2,42.4,29.2,42.4,24.3L42.4,24.3z M35.6,23.5c0-8.2,0.2-7.8-2.1-6.6c-1.8,1-3.6,2.8-4.1,4.4c-0.9,2.6-0.2,4.9,2.2,7
			c0.9,0.8,3.4,2.4,3.8,2.4C35.5,30.7,35.6,27.5,35.6,23.5z"/>
		<g id="text4627-3-2-3">
			<g class="st2">
				<path class="st3" d="M38.8,79.3c0.7,0.3,1.2,0.8,1.6,1.3c0.4,0.6,0.6,1.2,0.6,2s-0.2,1.4-0.6,2c-0.4,0.6-0.9,1-1.6,1.3
					c-0.7,0.3-1.5,0.5-2.4,0.5h-2.1v2.9h-2.4V78.8h4.5C37.3,78.8,38.1,79,38.8,79.3z M37.9,84c0.4-0.3,0.6-0.8,0.6-1.3
					c0-0.6-0.2-1-0.6-1.4c-0.4-0.3-0.9-0.5-1.7-0.5h-2v3.6h2C36.9,84.4,37.5,84.3,37.9,84z"/>
				<path class="st3" d="M42.6,78.8H45v10.5h-2.4V78.8z"/>
				<path class="st3" d="M54.5,87.1h-4.9l-0.9,2.3h-2.5l4.7-10.5h2.4L58,89.4h-2.5L54.5,87.1z M53.7,85.2l-1.7-4l-1.7,4H53.7z"/>
				<path class="st3" d="M61,88.8c-0.9-0.5-1.5-1.1-2-1.9s-0.7-1.8-0.7-2.8s0.2-2,0.7-2.8s1.2-1.5,2-1.9c0.9-0.5,1.8-0.7,2.9-0.7
					c0.9,0,1.7,0.2,2.5,0.5c0.7,0.3,1.4,0.8,1.9,1.4L66.7,82c-0.7-0.8-1.6-1.2-2.6-1.2c-0.7,0-1.2,0.1-1.7,0.4s-0.9,0.7-1.2,1.2
					s-0.4,1.1-0.4,1.7c0,0.7,0.1,1.2,0.4,1.7c0.3,0.5,0.7,0.9,1.2,1.2c0.5,0.3,1.1,0.4,1.7,0.4c1,0,1.9-0.4,2.6-1.2l1.6,1.4
					c-0.5,0.6-1.1,1.1-1.9,1.4c-0.7,0.3-1.6,0.5-2.5,0.5C62.8,89.5,61.9,89.3,61,88.8z"/>
			</g>
		</g>
	</g>
</g>
</svg>
